<?xml version="1.0" encoding="utf-8"?>
<!-- Generator: Adobe Illustrator 25.2.1, SVG Export Plug-In . SVG Version: 6.00 Build 0)  -->
<svg version="1.1" id="Layer_1" xmlns="http://www.w3.org/2000/svg" xmlns:xlink="http://www.w3.org/1999/xlink" x="0px" y="0px"
	 viewBox="0 0 63 63" style="enable-background:new 0 0 63 63;" xml:space="preserve">
<style type="text/css">
	.st0{fill:#FCB019;}
</style>
<g id="Cycling_mountain_bike">
	<path d="M44.5,55c-3.1,0-6-1.2-8.1-3.4l-1-1C33,48.3,29.9,47,26.5,47h-6.1c-3.1,0-6-1.2-8.1-3.4l-1-1C9,40.3,5.9,39,2.5,39H0v1h2.5
		c3.1,0,6,1.2,8.1,3.4l1,1c2.4,2.4,5.5,3.7,8.8,3.7h6.1c3.1,0,6,1.2,8.1,3.4l1,1c2.4,2.4,5.5,3.7,8.8,3.7H63v-1H44.5z"/>
	<path class="st0" d="M46.8,30.8c-5.4-2.2-11.5,0.3-13.7,5.7c-1.1,2.6-1.1,5.4,0,8c1.1,2.6,3.1,4.6,5.7,5.7c1.3,0.5,2.7,0.8,4,0.8
		c4.1,0,8-2.4,9.7-6.5C54.7,39.2,52.1,33,46.8,30.8z M51.5,44.1c-2,4.8-7.6,7.1-12.4,5.1c-2.3-1-4.2-2.8-5.1-5.1c-1-2.3-1-4.9,0-7.3
		c2-4.8,7.6-7.1,12.4-5.1C51.2,33.7,53.5,39.3,51.5,44.1z"/>
	<path class="st0" d="M10.1,38.3c1.3,0.5,2.7,0.8,4,0.8s2.7-0.3,4-0.8c2.6-1.1,4.6-3.1,5.7-5.7s1.1-5.4,0-8
		c-1.1-2.6-3.1-4.6-5.7-5.7c-2.6-1.1-5.4-1.1-8,0C7.5,20,5.5,22,4.4,24.6C2.2,30,4.8,36.1,10.1,38.3z M5.3,25c1-2.3,2.8-4.2,5.1-5.1
		c2.3-1,4.9-1,7.3,0c2.3,1,4.2,2.8,5.1,5.1s1,4.9,0,7.3s-2.8,4.2-5.1,5.1c-2.3,1-4.9,1-7.3,0C5.7,35.4,3.3,29.8,5.3,25z"/>
	<path d="M24.4,35.9c0.3,0.6,0.7,1.1,1.4,1.4c0.3,0.1,0.6,0.2,1,0.2c0.3,0,0.6-0.1,1-0.2c0.6-0.3,1.1-0.7,1.4-1.4l1.3-3.2l9.2-3.8
		c1.3-0.5,1.9-2,1.4-3.3l-2.3-5.5h7.5v4.5c0,0.7,0.3,1.3,0.7,1.8l5.7,5.7c0.5,0.5,1.1,0.7,1.8,0.7c0.6,0,1.3-0.2,1.8-0.7
		c0.5-0.5,0.7-1.1,0.7-1.8c0-0.7-0.3-1.3-0.7-1.8l-4.9-4.9v-7c0-1.9-1.6-3.5-3.5-3.5h-11c-0.5,0-0.9,0.1-1.3,0.3c0,0,0,0,0,0
		l-1.8,0.8c-0.3,0.1-0.6,0.3-0.8,0.5c0,0,0,0,0,0c-0.1,0.1-0.2,0.2-0.2,0.3c0,0,0,0.1-0.1,0.1c-0.1,0.1-0.1,0.2-0.2,0.4
		c0,0,0,0,0,0.1L24.4,34C24.1,34.6,24.1,35.2,24.4,35.9z M36.6,14.1h11c1.4,0,2.5,1.1,2.5,2.5c0,0,0,0.1,0,0.1l0,0v1.5V19v4.7
		c0,0.1,0.1,0.3,0.1,0.4l5.1,5.1c0.3,0.3,0.4,0.7,0.4,1.1c0,0.4-0.2,0.8-0.4,1.1c-0.6,0.6-1.5,0.6-2.1,0l-5.7-5.7
		c-0.3-0.3-0.4-0.7-0.4-1.1v-4.5v-0.5v-0.5v-1.5c0,0,0-0.1,0-0.1c-0.1-0.2-0.2-0.4-0.5-0.4c-0.3,0-0.5,0.2-0.5,0.5v1.5h-7.9
		l-1.5-3.6c0,0,0,0,0,0c0,0,0,0,0,0l-0.5-1.3C36.2,14.1,36.4,14.1,36.6,14.1z M32.9,15.9c0.1-0.2,0.2-0.3,0.3-0.4c0,0,0,0,0.1-0.1
		c0,0,0,0,0.1,0c0.1-0.1,0.2-0.1,0.3-0.2c0,0,0.1,0,0.1-0.1l0.3-0.1l1.1-0.4l0,0l0.5,1.3l0,0.1l0.8,1.8l0.6,1.3l0.2,0.5l0.2,0.5
		l2.5,5.9c0.3,0.8,0,1.6-0.8,2l-8.3,3.4l-1,0.4c-0.1,0-0.2,0.1-0.3,0.1c-0.3,0-0.6,0-0.8-0.1c-0.4-0.2-0.7-0.4-0.8-0.8
		c-0.2-0.4-0.2-0.8,0-1.1c0.2-0.4,0.4-0.7,0.8-0.8l2.4-1l1.3-0.5l3.7-1.5c0.1-0.1,0.2-0.1,0.3-0.3s0.1-0.3,0-0.4l-1.5-3.7l-0.5-1.3
		l-1-2.4l0-0.1L32.9,17C32.8,16.6,32.8,16.2,32.9,15.9z M33,26.2l1.3-3.2l0.9,2.3L33,26.2z M32.2,17.7l1.6,3.9l-2.1,5.1l-3.3,1.4
		c-0.2,0.1-0.5,0.2-0.6,0.4L32.2,17.7z M25.3,34.3l1.5-3.7c0,0.2,0.1,0.5,0.2,0.7c0.3,0.6,0.7,1.1,1.3,1.4c0.3,0.1,0.5,0.2,0.8,0.2
		l-1.1,2.6c-0.2,0.4-0.4,0.7-0.8,0.8c-0.4,0.2-0.8,0.2-1.1,0s-0.7-0.4-0.8-0.8C25.1,35.1,25.1,34.7,25.3,34.3z"/>
	<path d="M55.6,20.1c1.9,0,3.5-1.6,3.5-3.5s-1.6-3.5-3.5-3.5s-3.5,1.6-3.5,3.5S53.6,20.1,55.6,20.1z M55.6,14.1
		c1.4,0,2.5,1.1,2.5,2.5s-1.1,2.5-2.5,2.5s-2.5-1.1-2.5-2.5S54.2,14.1,55.6,14.1z"/>
</g>
</svg>
